<svg xmlns="http://www.w3.org/2000/svg" viewBox="0 0 96 96" role="img" aria-label="Network switch">
  <defs>
    <linearGradient id="device" x1="14" y1="18" x2="82" y2="78" gradientUnits="userSpaceOnUse">
      <stop offset="0" stop-color="#1f5f99"/>
      <stop offset="0.55" stop-color="#0f766e"/>
      <stop offset="1" stop-color="#24303f"/>
    </linearGradient>
    <linearGradient id="face" x1="24" y1="30" x2="72" y2="66" gradientUnits="userSpaceOnUse">
      <stop offset="0" stop-color="#fefefe"/>
      <stop offset="1" stop-color="#dce7ec"/>
    </linearGradient>
  </defs>
  <rect x="12" y="18" width="72" height="54" rx="13" fill="url(#device)"/>
  <rect x="21" y="28" width="54" height="29" rx="8" fill="url(#face)"/>
  <rect x="26" y="35" width="9" height="7" rx="2" fill="#0f766e"/>
  <rect x="38" y="35" width="9" height="7" rx="2" fill="#1f5f99"/>
  <rect x="50" y="35" width="9" height="7" rx="2" fill="#0f766e"/>
  <rect x="62" y="35" width="9" height="7" rx="2" fill="#1f5f99"/>
  <rect x="26" y="46" width="11" height="6" rx="2" fill="#273443"/>
  <rect x="40" y="46" width="11" height="6" rx="2" fill="#273443"/>
  <rect x="54" y="46" width="11" height="6" rx="2" fill="#273443"/>
  <circle cx="68" cy="49" r="3" fill="#c45a1b"/>
  <path d="M30 70v7m18-7v7m18-7v7M24 77h48" fill="none" stroke="#273443" stroke-width="4" stroke-linecap="round"/>
  <path d="M19 23h58" stroke="rgba(255,255,255,0.34)" stroke-width="2" stroke-linecap="round"/>
  <path d="M20 19l6-5m19 5l4-5m18 5l4-5" fill="none" stroke="rgba(255,255,255,0.2)" stroke-width="2" stroke-linecap="round"/>
</svg>
